<?xml version="1.0" standalone="no"?><!DOCTYPE svg PUBLIC "-//W3C//DTD SVG 1.1//EN" "http://www.w3.org/Graphics/SVG/1.1/DTD/svg11.dtd"><svg t="1716648840463" class="icon" viewBox="0 0 1024 1024" version="1.1" xmlns="http://www.w3.org/2000/svg" p-id="5297" xmlns:xlink="http://www.w3.org/1999/xlink" width="200" height="200"><path d="M837.802667 386.243048a303.88419 303.88419 0 0 1 94.500571 220.623238c0 168.326095-136.43581 304.761905-304.761905 304.761904-143.579429 0-263.972571-99.279238-296.228571-232.935619l226.182095-130.633142c-0.78019 7.314286-1.414095 14.726095-1.901714 22.235428h143.920762a480.646095 480.646095 0 0 0-15.457524-95.305143l65.097143-37.571047c12.507429 38.887619 20.845714 84.114286 23.649524 132.87619h83.480381a231.448381 231.448381 0 0 0-85.430858-145.408l66.950096-38.643809z m-138.288762 257.219047h-143.920762c3.730286 57.173333 16.067048 108.958476 34.450286 147.260953 16.384 34.133333 31.865905 47.762286 37.497904 47.762285 5.632 0 21.113905-13.653333 37.497905-47.786666 18.383238-38.278095 30.72-90.063238 34.474667-147.260953z m156.769524 0h-83.504762c-3.681524 64.365714-17.017905 122.538667-36.864 168.155429a231.862857 231.862857 0 0 0 120.368762-168.155429z m-374.00381 0h-83.480381a231.814095 231.814095 0 0 0 120.393143 168.155429c-19.870476-45.592381-33.182476-103.814095-36.888381-168.17981zM185.417143 120.734476L563.931429 220.598857l-0.146286 0.804572 29.549714-19.577905c58.172952-38.570667 131.510857-47.542857 202.532572-25.014857l7.582476 2.535619 34.547809 12.068571c16.481524 5.778286 30.915048 18.017524 40.228572 34.108953 18.797714 32.597333 11.897905 72.118857-15.116191 90.209523l-3.096381 1.901715-556.81219 321.243428c-19.163429 11.068952-43.471238 9.752381-64.048762-3.145143l-3.803429-2.56-123.416381-88.33219a63.829333 63.829333 0 0 1-14.506666-14.457905c-17.846857-24.673524-16.042667-57.58781 3.559619-75.288381l2.657524-2.218667 38.985142-30.159238a56.56381 56.56381 0 0 1 38.668191-11.507809l4.729905 0.487619 74.605714 10.727619 50.639238-33.572571-206.019048-108.982858c-33.572571-17.724952-50.224762-58.61181-38.716952-93.086476l1.584762-4.266666c4.85181-11.873524 12.873143-21.77219 23.186286-28.598858l36.693333-24.307809c16.579048-10.971429 37.229714-14.140952 57.392762-8.850286z m446.902857 141.702095L281.673143 494.933333l-96.865524-13.897143-24.502857 18.944 106.837333 76.458667 554.300953-319.804952-31.597715-11.044572c-55.003429-19.236571-112.39619-13.092571-157.598476 16.871619zM168.545524 188.562286l-1.852953 0.975238-36.717714 24.307809a2.145524 2.145524 0 0 0-0.78019 0.975238c-0.487619 1.219048 0.073143 2.730667 1.267809 3.364572l243.760762 128.902095 114.663619-76.04419L174.908952 188.269714a10.288762 10.288762 0 0 0-6.339047 0.292572z" p-id="5298" fill="#ffffff"></path></svg>